<?xml version="1.0" encoding="UTF-8" standalone="no"?>
<svg
   xmlns:dc="http://purl.org/dc/elements/1.1/"
   xmlns:cc="http://creativecommons.org/ns#"
   xmlns:rdf="http://www.w3.org/1999/02/22-rdf-syntax-ns#"
   xmlns:svg="http://www.w3.org/2000/svg"
   xmlns="http://www.w3.org/2000/svg"
   xmlns:sodipodi="http://sodipodi.sourceforge.net/DTD/sodipodi-0.dtd"
   xmlns:inkscape="http://www.inkscape.org/namespaces/inkscape"
   sodipodi:docname="scale_100.svg"
   inkscape:version="1.0 (4035a4fb49, 2020-05-01)"
   id="svg8"
   version="1.1"
   viewBox="0 0 108.24495 7.3946056"
   height="7.3946056mm"
   width="108.24495mm">
  <defs
     id="defs2">
    <clipPath
       clipPathUnits="userSpaceOnUse"
       id="clipEmfPath1">
      <path
         d=""
         id="path24" />
    </clipPath>
    <clipPath
       clipPathUnits="userSpaceOnUse"
       id="clipEmfPath2">
      <path
         d="M -9.1195263,-5.9196925 H 384.62002 V 30.558413 H -9.1195263 Z"
         id="path27" />
    </clipPath>
    <pattern
       id="EMFhbasepattern"
       patternUnits="userSpaceOnUse"
       width="6"
       height="6"
       x="0"
       y="0" />
    <clipPath
       clipPathUnits="userSpaceOnUse"
       id="clipEmfPath1-8">
      <path
         d=""
         id="path477" />
    </clipPath>
    <clipPath
       clipPathUnits="userSpaceOnUse"
       id="clipEmfPath2-3">
      <path
         d="M -9.279518,-5.9196925 H 457.09626 V 30.398421 H -9.279518 Z"
         id="path480" />
    </clipPath>
    <pattern
       id="EMFhbasepattern-9"
       patternUnits="userSpaceOnUse"
       width="6"
       height="6"
       x="0"
       y="0" />
    <clipPath
       clipPathUnits="userSpaceOnUse"
       id="clipEmfPath1-4">
      <path
         d=""
         id="path1327" />
    </clipPath>
    <clipPath
       clipPathUnits="userSpaceOnUse"
       id="clipEmfPath2-6">
      <path
         d="M -8.1595762,-5.9196925 H 423.01803 V 30.398421 H -8.1595762 Z"
         id="path1330" />
    </clipPath>
    <pattern
       id="EMFhbasepattern-3"
       patternUnits="userSpaceOnUse"
       width="6"
       height="6"
       x="0"
       y="0" />
  </defs>
  <sodipodi:namedview
     inkscape:window-maximized="1"
     inkscape:window-y="-6"
     inkscape:window-x="-6"
     inkscape:window-height="878"
     inkscape:window-width="1600"
     showgrid="false"
     inkscape:document-rotation="0"
     inkscape:current-layer="layer1"
     inkscape:document-units="mm"
     inkscape:cy="65.448088"
     inkscape:cx="123.40612"
     inkscape:zoom="2.8"
     inkscape:pageshadow="2"
     inkscape:pageopacity="0.0"
     borderopacity="1.0"
     bordercolor="#666666"
     pagecolor="#ffffff"
     id="base" />
  <metadata
     id="metadata5">
    <rdf:RDF>
      <cc:Work
         rdf:about="">
        <dc:format>image/svg+xml</dc:format>
        <dc:type
           rdf:resource="http://purl.org/dc/dcmitype/StillImage" />
        <dc:title></dc:title>
      </cc:Work>
    </rdf:RDF>
  </metadata>
  <g
     transform="translate(-72.279344,-105.54881)"
     id="layer1"
     inkscape:groupmode="layer"
     inkscape:label="Layer 1">
    <path
       style="fill:none;stroke:none;stroke-width:0.264583"
       d="M 178.91383,112.47778 73.128322,110.82686 178.91383,109.17595 Z"
       id="path1336" />
    <path
       transform="matrix(0.26458333,0,0,0.26458333,71.75256,104.92167)"
       style="fill:#ffffff;fill-opacity:1;fill-rule:evenodd;stroke:none"
       clip-path="url(#clipEmfPath1-4)"
       d="M 5.1197341,15.999169 V 28.638513 H 24.798712 V 15.999169 Z"
       id="path1338" />
    <path
       transform="matrix(0.26458333,0,0,0.26458333,71.75256,104.92167)"
       style="fill:#fefefd;fill-opacity:1;fill-rule:evenodd;stroke:none"
       clip-path="url(#clipEmfPath1-4)"
       d="M 24.798712,15.999169 V 28.638513 H 35.678147 V 15.999169 Z"
       id="path1340" />
    <path
       transform="matrix(0.26458333,0,0,0.26458333,71.75256,104.92167)"
       style="fill:#fcfdfc;fill-opacity:1;fill-rule:evenodd;stroke:none"
       clip-path="url(#clipEmfPath1-4)"
       d="M 35.678147,15.999169 V 28.638513 H 49.757416 V 15.999169 Z"
       id="path1342" />
    <path
       transform="matrix(0.26458333,0,0,0.26458333,71.75256,104.92167)"
       style="fill:#fbfbfa;fill-opacity:1;fill-rule:evenodd;stroke:none"
       clip-path="url(#clipEmfPath1-4)"
       d="m 49.757416,15.999169 v 12.639344 h 9.279518 V 15.999169 Z"
       id="path1344" />
    <path
       transform="matrix(0.26458333,0,0,0.26458333,71.75256,104.92167)"
       style="fill:#f9faf9;fill-opacity:1;fill-rule:evenodd;stroke:none"
       clip-path="url(#clipEmfPath1-4)"
       d="m 59.036934,15.999169 v 12.639344 h 9.439509 V 15.999169 Z"
       id="path1346" />
    <path
       transform="matrix(0.26458333,0,0,0.26458333,71.75256,104.92167)"
       style="fill:#f8f9f7;fill-opacity:1;fill-rule:evenodd;stroke:none"
       clip-path="url(#clipEmfPath1-4)"
       d="m 68.476443,15.999169 v 12.639344 h 7.839593 V 15.999169 Z"
       id="path1348" />
    <path
       transform="matrix(0.26458333,0,0,0.26458333,71.75256,104.92167)"
       style="fill:#f6f8f6;fill-opacity:1;fill-rule:evenodd;stroke:none"
       clip-path="url(#clipEmfPath1-4)"
       d="m 76.316036,15.999169 v 12.639344 h 6.239676 V 15.999169 Z"
       id="path1350" />
    <path
       transform="matrix(0.26458333,0,0,0.26458333,71.75256,104.92167)"
       style="fill:#f5f7f4;fill-opacity:1;fill-rule:evenodd;stroke:none"
       clip-path="url(#clipEmfPath1-4)"
       d="m 82.555712,15.999169 v 12.639344 h 6.239676 V 15.999169 Z"
       id="path1352" />
    <path
       transform="matrix(0.26458333,0,0,0.26458333,71.75256,104.92167)"
       style="fill:#f3f5f3;fill-opacity:1;fill-rule:evenodd;stroke:none"
       clip-path="url(#clipEmfPath1-4)"
       d="m 88.795388,15.999169 v 12.639344 h 6.239676 V 15.999169 Z"
       id="path1354" />
    <path
       transform="matrix(0.26458333,0,0,0.26458333,71.75256,104.92167)"
       style="fill:#f2f4f1;fill-opacity:1;fill-rule:evenodd;stroke:none"
       clip-path="url(#clipEmfPath1-4)"
       d="m 95.035064,15.999169 v 12.639344 h 6.239676 V 15.999169 Z"
       id="path1356" />
    <path
       transform="matrix(0.26458333,0,0,0.26458333,71.75256,104.92167)"
       style="fill:#f0f3ef;fill-opacity:1;fill-rule:evenodd;stroke:none"
       clip-path="url(#clipEmfPath1-4)"
       d="m 101.27474,15.999169 v 12.639344 h 4.63976 V 15.999169 Z"
       id="path1358" />
    <path
       transform="matrix(0.26458333,0,0,0.26458333,71.75256,104.92167)"
       style="fill:#eff1ee;fill-opacity:1;fill-rule:evenodd;stroke:none"
       clip-path="url(#clipEmfPath1-4)"
       d="m 105.9145,15.999169 v 12.639344 h 4.63976 V 15.999169 Z"
       id="path1360" />
    <path
       transform="matrix(0.26458333,0,0,0.26458333,71.75256,104.92167)"
       style="fill:#eef0ec;fill-opacity:1;fill-rule:evenodd;stroke:none"
       clip-path="url(#clipEmfPath1-4)"
       d="m 110.55426,15.999169 v 12.639344 h 4.79975 V 15.999169 Z"
       id="path1362" />
    <path
       transform="matrix(0.26458333,0,0,0.26458333,71.75256,104.92167)"
       style="fill:#ecefeb;fill-opacity:1;fill-rule:evenodd;stroke:none"
       clip-path="url(#clipEmfPath1-4)"
       d="m 115.35401,15.999169 v 12.639344 h 4.63976 V 15.999169 Z"
       id="path1364" />
    <path
       transform="matrix(0.26458333,0,0,0.26458333,71.75256,104.92167)"
       style="fill:#eaeee9;fill-opacity:1;fill-rule:evenodd;stroke:none"
       clip-path="url(#clipEmfPath1-4)"
       d="m 119.99377,15.999169 v 12.639344 h 4.63976 V 15.999169 Z"
       id="path1366" />
    <path
       transform="matrix(0.26458333,0,0,0.26458333,71.75256,104.92167)"
       style="fill:#e9ece7;fill-opacity:1;fill-rule:evenodd;stroke:none"
       clip-path="url(#clipEmfPath1-4)"
       d="m 124.63353,15.999169 v 12.639344 h 4.79975 V 15.999169 Z"
       id="path1368" />
    <path
       transform="matrix(0.26458333,0,0,0.26458333,71.75256,104.92167)"
       style="fill:#e7ebe5;fill-opacity:1;fill-rule:evenodd;stroke:none"
       clip-path="url(#clipEmfPath1-4)"
       d="m 129.43328,15.999169 v 12.639344 h 4.63976 V 15.999169 Z"
       id="path1370" />
    <path
       transform="matrix(0.26458333,0,0,0.26458333,71.75256,104.92167)"
       style="fill:#e5e9e4;fill-opacity:1;fill-rule:evenodd;stroke:none"
       clip-path="url(#clipEmfPath1-4)"
       d="m 134.07304,15.999169 v 12.639344 h 3.03984 V 15.999169 Z"
       id="path1372" />
    <path
       transform="matrix(0.26458333,0,0,0.26458333,71.75256,104.92167)"
       style="fill:#e4e8e2;fill-opacity:1;fill-rule:evenodd;stroke:none"
       clip-path="url(#clipEmfPath1-4)"
       d="m 137.11288,15.999169 v 12.639344 h 4.79975 V 15.999169 Z"
       id="path1374" />
    <path
       transform="matrix(0.26458333,0,0,0.26458333,71.75256,104.92167)"
       style="fill:#e2e7e0;fill-opacity:1;fill-rule:evenodd;stroke:none"
       clip-path="url(#clipEmfPath1-4)"
       d="m 141.91263,15.999169 v 12.639344 h 4.63976 V 15.999169 Z"
       id="path1376" />
    <path
       transform="matrix(0.26458333,0,0,0.26458333,71.75256,104.92167)"
       style="fill:#e0e5de;fill-opacity:1;fill-rule:evenodd;stroke:none"
       clip-path="url(#clipEmfPath1-4)"
       d="m 146.55239,15.999169 v 12.639344 h 4.63976 V 15.999169 Z"
       id="path1378" />
    <path
       transform="matrix(0.26458333,0,0,0.26458333,71.75256,104.92167)"
       style="fill:#dee3dc;fill-opacity:1;fill-rule:evenodd;stroke:none"
       clip-path="url(#clipEmfPath1-4)"
       d="m 151.19215,15.999169 v 12.639344 h 3.19983 V 15.999169 Z"
       id="path1380" />
    <path
       transform="matrix(0.26458333,0,0,0.26458333,71.75256,104.92167)"
       style="fill:#dde2da;fill-opacity:1;fill-rule:evenodd;stroke:none"
       clip-path="url(#clipEmfPath1-4)"
       d="m 154.39198,15.999169 v 12.639344 h 3.03984 V 15.999169 Z"
       id="path1382" />
    <path
       transform="matrix(0.26458333,0,0,0.26458333,71.75256,104.92167)"
       style="fill:#dbe1d9;fill-opacity:1;fill-rule:evenodd;stroke:none"
       clip-path="url(#clipEmfPath1-4)"
       d="m 157.43182,15.999169 v 12.639344 h 3.19984 V 15.999169 Z"
       id="path1384" />
    <path
       transform="matrix(0.26458333,0,0,0.26458333,71.75256,104.92167)"
       style="fill:#dae0d7;fill-opacity:1;fill-rule:evenodd;stroke:none"
       clip-path="url(#clipEmfPath1-4)"
       d="m 160.63166,15.999169 v 12.639344 h 3.03984 V 15.999169 Z"
       id="path1386" />
    <path
       transform="matrix(0.26458333,0,0,0.26458333,71.75256,104.92167)"
       style="fill:#d8dfd5;fill-opacity:1;fill-rule:evenodd;stroke:none"
       clip-path="url(#clipEmfPath1-4)"
       d="m 163.6715,15.999169 v 12.639344 h 3.19983 V 15.999169 Z"
       id="path1388" />
    <path
       transform="matrix(0.26458333,0,0,0.26458333,71.75256,104.92167)"
       style="fill:#d6ddd4;fill-opacity:1;fill-rule:evenodd;stroke:none"
       clip-path="url(#clipEmfPath1-4)"
       d="m 166.87133,15.999169 v 12.639344 h 3.03984 V 15.999169 Z"
       id="path1390" />
    <path
       transform="matrix(0.26458333,0,0,0.26458333,71.75256,104.92167)"
       style="fill:#d5dcd2;fill-opacity:1;fill-rule:evenodd;stroke:none"
       clip-path="url(#clipEmfPath1-4)"
       d="m 169.91117,15.999169 v 12.639344 h 3.19984 V 15.999169 Z"
       id="path1392" />
    <path
       transform="matrix(0.26458333,0,0,0.26458333,71.75256,104.92167)"
       style="fill:#d3dbd0;fill-opacity:1;fill-rule:evenodd;stroke:none"
       clip-path="url(#clipEmfPath1-4)"
       d="m 173.11101,15.999169 v 12.639344 h 3.03984 V 15.999169 Z"
       id="path1394" />
    <path
       transform="matrix(0.26458333,0,0,0.26458333,71.75256,104.92167)"
       style="fill:#d2d9ce;fill-opacity:1;fill-rule:evenodd;stroke:none"
       clip-path="url(#clipEmfPath1-4)"
       d="m 176.15085,15.999169 v 12.639344 h 3.19983 V 15.999169 Z"
       id="path1396" />
    <path
       transform="matrix(0.26458333,0,0,0.26458333,71.75256,104.92167)"
       style="fill:#d0d8cd;fill-opacity:1;fill-rule:evenodd;stroke:none"
       clip-path="url(#clipEmfPath1-4)"
       d="m 179.35068,15.999169 v 12.639344 h 3.03985 V 15.999169 Z"
       id="path1398" />
    <path
       transform="matrix(0.26458333,0,0,0.26458333,71.75256,104.92167)"
       style="fill:#ced6cb;fill-opacity:1;fill-rule:evenodd;stroke:none"
       clip-path="url(#clipEmfPath1-4)"
       d="m 182.39053,15.999169 v 12.639344 h 3.19983 V 15.999169 Z"
       id="path1400" />
    <path
       transform="matrix(0.26458333,0,0,0.26458333,71.75256,104.92167)"
       style="fill:#ccd5c9;fill-opacity:1;fill-rule:evenodd;stroke:none"
       clip-path="url(#clipEmfPath1-4)"
       d="m 185.59036,15.999169 v 12.639344 h 3.03984 V 15.999169 Z"
       id="path1402" />
    <path
       transform="matrix(0.26458333,0,0,0.26458333,71.75256,104.92167)"
       style="fill:#cbd4c7;fill-opacity:1;fill-rule:evenodd;stroke:none"
       clip-path="url(#clipEmfPath1-4)"
       d="m 188.6302,15.999169 v 12.639344 h 3.19984 V 15.999169 Z"
       id="path1404" />
    <path
       transform="matrix(0.26458333,0,0,0.26458333,71.75256,104.92167)"
       style="fill:#c9d2c5;fill-opacity:1;fill-rule:evenodd;stroke:none"
       clip-path="url(#clipEmfPath1-4)"
       d="m 191.83004,15.999169 v 12.639344 h 3.19983 V 15.999169 Z"
       id="path1406" />
    <path
       transform="matrix(0.26458333,0,0,0.26458333,71.75256,104.92167)"
       style="fill:#c7d1c3;fill-opacity:1;fill-rule:evenodd;stroke:none"
       clip-path="url(#clipEmfPath1-4)"
       d="m 195.02987,15.999169 v 12.639344 h 3.03984 V 15.999169 Z"
       id="path1408" />
    <path
       transform="matrix(0.26458333,0,0,0.26458333,71.75256,104.92167)"
       style="fill:#c5cfc1;fill-opacity:1;fill-rule:evenodd;stroke:none"
       clip-path="url(#clipEmfPath1-4)"
       d="m 198.06971,15.999169 v 12.639344 h 3.19984 V 15.999169 Z"
       id="path1410" />
    <path
       transform="matrix(0.26458333,0,0,0.26458333,71.75256,104.92167)"
       style="fill:#c3cebf;fill-opacity:1;fill-rule:evenodd;stroke:none"
       clip-path="url(#clipEmfPath1-4)"
       d="m 201.26955,15.999169 v 12.639344 h 3.03984 V 15.999169 Z"
       id="path1412" />
    <path
       transform="matrix(0.26458333,0,0,0.26458333,71.75256,104.92167)"
       style="fill:#c1ccbd;fill-opacity:1;fill-rule:evenodd;stroke:none"
       clip-path="url(#clipEmfPath1-4)"
       d="m 204.30939,15.999169 v 12.639344 h 3.19983 V 15.999169 Z"
       id="path1414" />
    <path
       transform="matrix(0.26458333,0,0,0.26458333,71.75256,104.92167)"
       style="fill:#bfcbbb;fill-opacity:1;fill-rule:evenodd;stroke:none"
       clip-path="url(#clipEmfPath1-4)"
       d="m 207.50922,15.999169 v 12.639344 h 3.03984 V 15.999169 Z"
       id="path1416" />
    <path
       transform="matrix(0.26458333,0,0,0.26458333,71.75256,104.92167)"
       style="fill:#bdc9b9;fill-opacity:1;fill-rule:evenodd;stroke:none"
       clip-path="url(#clipEmfPath1-4)"
       d="m 210.54906,15.999169 v 12.639344 h 1.9199 V 15.999169 Z"
       id="path1418" />
    <path
       transform="matrix(0.26458333,0,0,0.26458333,71.75256,104.92167)"
       style="fill:#bcc8b7;fill-opacity:1;fill-rule:evenodd;stroke:none"
       clip-path="url(#clipEmfPath1-4)"
       d="m 212.46896,15.999169 v 12.639344 h 2.71986 V 15.999169 Z"
       id="path1420" />
    <path
       transform="matrix(0.26458333,0,0,0.26458333,71.75256,104.92167)"
       style="fill:#bac7b5;fill-opacity:1;fill-rule:evenodd;stroke:none"
       clip-path="url(#clipEmfPath1-4)"
       d="m 215.18882,15.999169 v 12.639344 h 3.19984 V 15.999169 Z"
       id="path1422" />
    <path
       transform="matrix(0.26458333,0,0,0.26458333,71.75256,104.92167)"
       style="fill:#b8c5b3;fill-opacity:1;fill-rule:evenodd;stroke:none"
       clip-path="url(#clipEmfPath1-4)"
       d="m 218.38866,15.999169 v 12.639344 h 3.03984 V 15.999169 Z"
       id="path1424" />
    <path
       transform="matrix(0.26458333,0,0,0.26458333,71.75256,104.92167)"
       style="fill:#b6c4b1;fill-opacity:1;fill-rule:evenodd;stroke:none"
       clip-path="url(#clipEmfPath1-4)"
       d="m 221.4285,15.999169 v 12.639344 h 2.87985 V 15.999169 Z"
       id="path1426" />
    <path
       transform="matrix(0.26458333,0,0,0.26458333,71.75256,104.92167)"
       style="fill:#b5c3af;fill-opacity:1;fill-rule:evenodd;stroke:none"
       clip-path="url(#clipEmfPath1-4)"
       d="m 224.30835,15.999169 v 12.639344 h 1.9199 V 15.999169 Z"
       id="path1428" />
    <path
       transform="matrix(0.26458333,0,0,0.26458333,71.75256,104.92167)"
       style="fill:#b3c1ad;fill-opacity:1;fill-rule:evenodd;stroke:none"
       clip-path="url(#clipEmfPath1-4)"
       d="m 226.22825,15.999169 v 12.639344 h 3.03984 V 15.999169 Z"
       id="path1430" />
    <path
       transform="matrix(0.26458333,0,0,0.26458333,71.75256,104.92167)"
       style="fill:#b1c0ab;fill-opacity:1;fill-rule:evenodd;stroke:none"
       clip-path="url(#clipEmfPath1-4)"
       d="m 229.26809,15.999169 v 12.639344 h 3.19984 V 15.999169 Z"
       id="path1432" />
    <path
       transform="matrix(0.26458333,0,0,0.26458333,71.75256,104.92167)"
       style="fill:#afbea9;fill-opacity:1;fill-rule:evenodd;stroke:none"
       clip-path="url(#clipEmfPath1-4)"
       d="m 232.46793,15.999169 v 12.639344 h 2.71985 V 15.999169 Z"
       id="path1434" />
    <path
       transform="matrix(0.26458333,0,0,0.26458333,71.75256,104.92167)"
       style="fill:#aebda7;fill-opacity:1;fill-rule:evenodd;stroke:none"
       clip-path="url(#clipEmfPath1-4)"
       d="m 235.18778,15.999169 v 12.639344 h 1.9199 V 15.999169 Z"
       id="path1436" />
    <path
       transform="matrix(0.26458333,0,0,0.26458333,71.75256,104.92167)"
       style="fill:#acbca5;fill-opacity:1;fill-rule:evenodd;stroke:none"
       clip-path="url(#clipEmfPath1-4)"
       d="m 237.10768,15.999169 v 12.639344 h 3.19984 V 15.999169 Z"
       id="path1438" />
    <path
       transform="matrix(0.26458333,0,0,0.26458333,71.75256,104.92167)"
       style="fill:#aabaa3;fill-opacity:1;fill-rule:evenodd;stroke:none"
       clip-path="url(#clipEmfPath1-4)"
       d="m 240.30752,15.999169 v 12.639344 h 3.03984 V 15.999169 Z"
       id="path1440" />
    <path
       transform="matrix(0.26458333,0,0,0.26458333,71.75256,104.92167)"
       style="fill:#a8b9a1;fill-opacity:1;fill-rule:evenodd;stroke:none"
       clip-path="url(#clipEmfPath1-4)"
       d="m 243.34736,15.999169 v 12.639344 h 1.9199 V 15.999169 Z"
       id="path1442" />
    <path
       transform="matrix(0.26458333,0,0,0.26458333,71.75256,104.92167)"
       style="fill:#a7b89f;fill-opacity:1;fill-rule:evenodd;stroke:none"
       clip-path="url(#clipEmfPath1-4)"
       d="m 245.26726,15.999169 v 12.639344 h 2.71986 V 15.999169 Z"
       id="path1444" />
    <path
       transform="matrix(0.26458333,0,0,0.26458333,71.75256,104.92167)"
       style="fill:#a5b69d;fill-opacity:1;fill-rule:evenodd;stroke:none"
       clip-path="url(#clipEmfPath1-4)"
       d="m 247.98712,15.999169 v 12.639344 h 2.71986 V 15.999169 Z"
       id="path1446" />
    <path
       transform="matrix(0.26458333,0,0,0.26458333,71.75256,104.92167)"
       style="fill:#a3b59c;fill-opacity:1;fill-rule:evenodd;stroke:none"
       clip-path="url(#clipEmfPath1-4)"
       d="m 250.70698,15.999169 v 12.639344 h 2.07989 V 15.999169 Z"
       id="path1448" />
    <path
       transform="matrix(0.26458333,0,0,0.26458333,71.75256,104.92167)"
       style="fill:#a1b49a;fill-opacity:1;fill-rule:evenodd;stroke:none"
       clip-path="url(#clipEmfPath1-4)"
       d="m 252.78687,15.999169 v 12.639344 h 1.9199 V 15.999169 Z"
       id="path1450" />
    <path
       transform="matrix(0.26458333,0,0,0.26458333,71.75256,104.92167)"
       style="fill:#a0b398;fill-opacity:1;fill-rule:evenodd;stroke:none"
       clip-path="url(#clipEmfPath1-4)"
       d="m 254.70677,15.999169 v 12.639344 h 2.71986 V 15.999169 Z"
       id="path1452" />
    <path
       transform="matrix(0.26458333,0,0,0.26458333,71.75256,104.92167)"
       style="fill:#9eb196;fill-opacity:1;fill-rule:evenodd;stroke:none"
       clip-path="url(#clipEmfPath1-4)"
       d="m 257.42663,15.999169 v 12.639344 h 2.71986 V 15.999169 Z"
       id="path1454" />
    <path
       transform="matrix(0.26458333,0,0,0.26458333,71.75256,104.92167)"
       style="fill:#9db194;fill-opacity:1;fill-rule:evenodd;stroke:none"
       clip-path="url(#clipEmfPath1-4)"
       d="m 260.14649,15.999169 v 12.639344 h 1.9199 V 15.999169 Z"
       id="path1456" />
    <path
       transform="matrix(0.26458333,0,0,0.26458333,71.75256,104.92167)"
       style="fill:#9baf92;fill-opacity:1;fill-rule:evenodd;stroke:none"
       clip-path="url(#clipEmfPath1-4)"
       d="m 262.06639,15.999169 v 12.639344 h 3.19983 V 15.999169 Z"
       id="path1458" />
    <path
       transform="matrix(0.26458333,0,0,0.26458333,71.75256,104.92167)"
       style="fill:#99ad90;fill-opacity:1;fill-rule:evenodd;stroke:none"
       clip-path="url(#clipEmfPath1-4)"
       d="m 265.26622,15.999169 v 12.639344 h 2.71986 V 15.999169 Z"
       id="path1460" />
    <path
       transform="matrix(0.26458333,0,0,0.26458333,71.75256,104.92167)"
       style="fill:#98ad8e;fill-opacity:1;fill-rule:evenodd;stroke:none"
       clip-path="url(#clipEmfPath1-4)"
       d="m 267.98608,15.999169 v 12.639344 h 1.9199 V 15.999169 Z"
       id="path1462" />
    <path
       transform="matrix(0.26458333,0,0,0.26458333,71.75256,104.92167)"
       style="fill:#96ab8c;fill-opacity:1;fill-rule:evenodd;stroke:none"
       clip-path="url(#clipEmfPath1-4)"
       d="m 269.90598,15.999169 v 12.639344 h 3.19984 V 15.999169 Z"
       id="path1464" />
    <path
       transform="matrix(0.26458333,0,0,0.26458333,71.75256,104.92167)"
       style="fill:#94aa8a;fill-opacity:1;fill-rule:evenodd;stroke:none"
       clip-path="url(#clipEmfPath1-4)"
       d="m 273.10582,15.999169 v 12.639344 h 1.9199 V 15.999169 Z"
       id="path1466" />
    <path
       transform="matrix(0.26458333,0,0,0.26458333,71.75256,104.92167)"
       style="fill:#92a989;fill-opacity:1;fill-rule:evenodd;stroke:none"
       clip-path="url(#clipEmfPath1-4)"
       d="m 275.02572,15.999169 v 12.639344 h 1.59991 V 15.999169 Z"
       id="path1468" />
    <path
       transform="matrix(0.26458333,0,0,0.26458333,71.75256,104.92167)"
       style="fill:#92a887;fill-opacity:1;fill-rule:evenodd;stroke:none"
       clip-path="url(#clipEmfPath1-4)"
       d="m 276.62563,15.999169 v 12.639344 h 1.43993 V 15.999169 Z"
       id="path1470" />
    <path
       transform="matrix(0.26458333,0,0,0.26458333,71.75256,104.92167)"
       style="fill:#90a786;fill-opacity:1;fill-rule:evenodd;stroke:none"
       clip-path="url(#clipEmfPath1-4)"
       d="m 278.06556,15.999169 v 12.639344 h 2.71986 V 15.999169 Z"
       id="path1472" />
    <path
       transform="matrix(0.26458333,0,0,0.26458333,71.75256,104.92167)"
       style="fill:#8ea684;fill-opacity:1;fill-rule:evenodd;stroke:none"
       clip-path="url(#clipEmfPath1-4)"
       d="m 280.78542,15.999169 v 12.639344 h 2.07989 V 15.999169 Z"
       id="path1474" />
    <path
       transform="matrix(0.26458333,0,0,0.26458333,71.75256,104.92167)"
       style="fill:#8da582;fill-opacity:1;fill-rule:evenodd;stroke:none"
       clip-path="url(#clipEmfPath1-4)"
       d="m 282.86531,15.999169 v 12.639344 h 2.71986 V 15.999169 Z"
       id="path1476" />
    <path
       transform="matrix(0.26458333,0,0,0.26458333,71.75256,104.92167)"
       style="fill:#8ba480;fill-opacity:1;fill-rule:evenodd;stroke:none"
       clip-path="url(#clipEmfPath1-4)"
       d="m 285.58517,15.999169 v 12.639344 h 3.03984 V 15.999169 Z"
       id="path1478" />
    <path
       transform="matrix(0.26458333,0,0,0.26458333,71.75256,104.92167)"
       style="fill:#89a27e;fill-opacity:1;fill-rule:evenodd;stroke:none"
       clip-path="url(#clipEmfPath1-4)"
       d="m 288.62501,15.999169 v 12.639344 h 1.9199 V 15.999169 Z"
       id="path1480" />
    <path
       transform="matrix(0.26458333,0,0,0.26458333,71.75256,104.92167)"
       style="fill:#88a27c;fill-opacity:1;fill-rule:evenodd;stroke:none"
       clip-path="url(#clipEmfPath1-4)"
       d="m 290.54491,15.999169 v 12.639344 h 2.71986 V 15.999169 Z"
       id="path1482" />
    <path
       transform="matrix(0.26458333,0,0,0.26458333,71.75256,104.92167)"
       style="fill:#86a07a;fill-opacity:1;fill-rule:evenodd;stroke:none"
       clip-path="url(#clipEmfPath1-4)"
       d="m 293.26477,15.999169 v 12.639344 h 3.19983 V 15.999169 Z"
       id="path1484" />
    <path
       transform="matrix(0.26458333,0,0,0.26458333,71.75256,104.92167)"
       style="fill:#849f78;fill-opacity:1;fill-rule:evenodd;stroke:none"
       clip-path="url(#clipEmfPath1-4)"
       d="m 296.4646,15.999169 v 12.639344 h 2.71986 V 15.999169 Z"
       id="path1486" />
    <path
       transform="matrix(0.26458333,0,0,0.26458333,71.75256,104.92167)"
       style="fill:#839e76;fill-opacity:1;fill-rule:evenodd;stroke:none"
       clip-path="url(#clipEmfPath1-4)"
       d="m 299.18446,15.999169 v 12.639344 h 1.9199 V 15.999169 Z"
       id="path1488" />
    <path
       transform="matrix(0.26458333,0,0,0.26458333,71.75256,104.92167)"
       style="fill:#819d74;fill-opacity:1;fill-rule:evenodd;stroke:none"
       clip-path="url(#clipEmfPath1-4)"
       d="m 301.10436,15.999169 v 12.639344 h 3.19983 V 15.999169 Z"
       id="path1490" />
    <path
       transform="matrix(0.26458333,0,0,0.26458333,71.75256,104.92167)"
       style="fill:#7f9c72;fill-opacity:1;fill-rule:evenodd;stroke:none"
       clip-path="url(#clipEmfPath1-4)"
       d="m 304.30419,15.999169 v 12.639344 h 1.9199 V 15.999169 Z"
       id="path1492" />
    <path
       transform="matrix(0.26458333,0,0,0.26458333,71.75256,104.92167)"
       style="fill:#7e9b70;fill-opacity:1;fill-rule:evenodd;stroke:none"
       clip-path="url(#clipEmfPath1-4)"
       d="m 306.22409,15.999169 v 12.639344 h 2.71986 V 15.999169 Z"
       id="path1494" />
    <path
       transform="matrix(0.26458333,0,0,0.26458333,71.75256,104.92167)"
       style="fill:#7c9a6f;fill-opacity:1;fill-rule:evenodd;stroke:none"
       clip-path="url(#clipEmfPath1-4)"
       d="m 308.94395,15.999169 v 12.639344 h 1.59992 V 15.999169 Z"
       id="path1496" />
    <path
       transform="matrix(0.26458333,0,0,0.26458333,71.75256,104.92167)"
       style="fill:#7c996d;fill-opacity:1;fill-rule:evenodd;stroke:none"
       clip-path="url(#clipEmfPath1-4)"
       d="m 310.54387,15.999169 v 12.639344 h 3.03984 V 15.999169 Z"
       id="path1498" />
    <path
       transform="matrix(0.26458333,0,0,0.26458333,71.75256,104.92167)"
       style="fill:#7a986b;fill-opacity:1;fill-rule:evenodd;stroke:none"
       clip-path="url(#clipEmfPath1-4)"
       d="m 313.58371,15.999169 v 12.639344 h 3.19984 V 15.999169 Z"
       id="path1500" />
    <path
       transform="matrix(0.26458333,0,0,0.26458333,71.75256,104.92167)"
       style="fill:#789769;fill-opacity:1;fill-rule:evenodd;stroke:none"
       clip-path="url(#clipEmfPath1-4)"
       d="m 316.78355,15.999169 v 12.639344 h 1.9199 V 15.999169 Z"
       id="path1502" />
    <path
       transform="matrix(0.26458333,0,0,0.26458333,71.75256,104.92167)"
       style="fill:#779667;fill-opacity:1;fill-rule:evenodd;stroke:none"
       clip-path="url(#clipEmfPath1-4)"
       d="m 318.70345,15.999169 v 12.639344 h 2.71986 V 15.999169 Z"
       id="path1504" />
    <path
       transform="matrix(0.26458333,0,0,0.26458333,71.75256,104.92167)"
       style="fill:#759565;fill-opacity:1;fill-rule:evenodd;stroke:none"
       clip-path="url(#clipEmfPath1-4)"
       d="m 321.42331,15.999169 v 12.639344 h 3.19983 V 15.999169 Z"
       id="path1506" />
    <path
       transform="matrix(0.26458333,0,0,0.26458333,71.75256,104.92167)"
       style="fill:#739463;fill-opacity:1;fill-rule:evenodd;stroke:none"
       clip-path="url(#clipEmfPath1-4)"
       d="m 324.62314,15.999169 v 12.639344 h 3.03984 V 15.999169 Z"
       id="path1508" />
    <path
       transform="matrix(0.26458333,0,0,0.26458333,71.75256,104.92167)"
       style="fill:#729361;fill-opacity:1;fill-rule:evenodd;stroke:none"
       clip-path="url(#clipEmfPath1-4)"
       d="m 327.66298,15.999169 v 12.639344 h 2.71986 V 15.999169 Z"
       id="path1510" />
    <path
       transform="matrix(0.26458333,0,0,0.26458333,71.75256,104.92167)"
       style="fill:#71925f;fill-opacity:1;fill-rule:evenodd;stroke:none"
       clip-path="url(#clipEmfPath1-4)"
       d="m 330.38284,15.999169 v 12.639344 h 1.9199 V 15.999169 Z"
       id="path1512" />
    <path
       transform="matrix(0.26458333,0,0,0.26458333,71.75256,104.92167)"
       style="fill:#6f915e;fill-opacity:1;fill-rule:evenodd;stroke:none"
       clip-path="url(#clipEmfPath1-4)"
       d="m 332.30274,15.999169 v 12.639344 h 2.87985 V 15.999169 Z"
       id="path1514" />
    <path
       transform="matrix(0.26458333,0,0,0.26458333,71.75256,104.92167)"
       style="fill:#6e915c;fill-opacity:1;fill-rule:evenodd;stroke:none"
       clip-path="url(#clipEmfPath1-4)"
       d="m 335.18259,15.999169 v 12.639344 h 1.9199 V 15.999169 Z"
       id="path1516" />
    <path
       transform="matrix(0.26458333,0,0,0.26458333,71.75256,104.92167)"
       style="fill:#6d905a;fill-opacity:1;fill-rule:evenodd;stroke:none"
       clip-path="url(#clipEmfPath1-4)"
       d="m 337.10249,15.999169 v 12.639344 h 3.03984 V 15.999169 Z"
       id="path1518" />
    <path
       transform="matrix(0.26458333,0,0,0.26458333,71.75256,104.92167)"
       style="fill:#6b8f58;fill-opacity:1;fill-rule:evenodd;stroke:none"
       clip-path="url(#clipEmfPath1-4)"
       d="m 340.14233,15.999169 v 12.639344 h 3.19984 V 15.999169 Z"
       id="path1520" />
    <path
       transform="matrix(0.26458333,0,0,0.26458333,71.75256,104.92167)"
       style="fill:#6a8e56;fill-opacity:1;fill-rule:evenodd;stroke:none"
       clip-path="url(#clipEmfPath1-4)"
       d="m 343.34217,15.999169 v 12.639344 h 3.03984 V 15.999169 Z"
       id="path1522" />
    <path
       transform="matrix(0.26458333,0,0,0.26458333,71.75256,104.92167)"
       style="fill:#688d54;fill-opacity:1;fill-rule:evenodd;stroke:none"
       clip-path="url(#clipEmfPath1-4)"
       d="m 346.38201,15.999169 v 12.639344 h 3.19983 V 15.999169 Z"
       id="path1524" />
    <path
       transform="matrix(0.26458333,0,0,0.26458333,71.75256,104.92167)"
       style="fill:#678c52;fill-opacity:1;fill-rule:evenodd;stroke:none"
       clip-path="url(#clipEmfPath1-4)"
       d="m 349.58184,15.999169 v 12.639344 h 3.03985 V 15.999169 Z"
       id="path1526" />
    <path
       transform="matrix(0.26458333,0,0,0.26458333,71.75256,104.92167)"
       style="fill:#658b50;fill-opacity:1;fill-rule:evenodd;stroke:none"
       clip-path="url(#clipEmfPath1-4)"
       d="m 352.62169,15.999169 v 12.639344 h 3.19983 V 15.999169 Z"
       id="path1528" />
    <path
       transform="matrix(0.26458333,0,0,0.26458333,71.75256,104.92167)"
       style="fill:#648a4e;fill-opacity:1;fill-rule:evenodd;stroke:none"
       clip-path="url(#clipEmfPath1-4)"
       d="m 355.82152,15.999169 v 12.639344 h 3.03984 V 15.999169 Z"
       id="path1530" />
    <path
       transform="matrix(0.26458333,0,0,0.26458333,71.75256,104.92167)"
       style="fill:#628a4c;fill-opacity:1;fill-rule:evenodd;stroke:none"
       clip-path="url(#clipEmfPath1-4)"
       d="m 358.86136,15.999169 v 12.639344 h 3.19983 V 15.999169 Z"
       id="path1532" />
    <path
       transform="matrix(0.26458333,0,0,0.26458333,71.75256,104.92167)"
       style="fill:#61894a;fill-opacity:1;fill-rule:evenodd;stroke:none"
       clip-path="url(#clipEmfPath1-4)"
       d="m 362.06119,15.999169 v 12.639344 h 3.03985 V 15.999169 Z"
       id="path1534" />
    <path
       transform="matrix(0.26458333,0,0,0.26458333,71.75256,104.92167)"
       style="fill:#608848;fill-opacity:1;fill-rule:evenodd;stroke:none"
       clip-path="url(#clipEmfPath1-4)"
       d="m 365.10104,15.999169 v 12.639344 h 4.79975 V 15.999169 Z"
       id="path1536" />
    <path
       transform="matrix(0.26458333,0,0,0.26458333,71.75256,104.92167)"
       style="fill:#5e8746;fill-opacity:1;fill-rule:evenodd;stroke:none"
       clip-path="url(#clipEmfPath1-4)"
       d="m 369.90079,15.999169 v 12.639344 h 3.03984 V 15.999169 Z"
       id="path1538" />
    <path
       transform="matrix(0.26458333,0,0,0.26458333,71.75256,104.92167)"
       style="fill:#5d8744;fill-opacity:1;fill-rule:evenodd;stroke:none"
       clip-path="url(#clipEmfPath1-4)"
       d="m 372.94063,15.999169 v 12.639344 h 3.51982 V 15.999169 Z"
       id="path1540" />
    <path
       transform="matrix(0.26458333,0,0,0.26458333,71.75256,104.92167)"
       style="fill:#5c8642;fill-opacity:1;fill-rule:evenodd;stroke:none"
       clip-path="url(#clipEmfPath1-4)"
       d="m 376.46045,15.999169 v 12.639344 h 4.31977 V 15.999169 Z"
       id="path1542" />
    <path
       transform="matrix(0.26458333,0,0,0.26458333,71.75256,104.92167)"
       style="fill:#5b8540;fill-opacity:1;fill-rule:evenodd;stroke:none"
       clip-path="url(#clipEmfPath1-4)"
       d="m 380.78022,15.999169 v 12.639344 h 3.19984 V 15.999169 Z"
       id="path1544" />
    <path
       transform="matrix(0.26458333,0,0,0.26458333,71.75256,104.92167)"
       style="fill:#59853e;fill-opacity:1;fill-rule:evenodd;stroke:none"
       clip-path="url(#clipEmfPath1-4)"
       d="m 383.98006,15.999169 v 12.639344 h 4.63976 V 15.999169 Z"
       id="path1546" />
    <path
       transform="matrix(0.26458333,0,0,0.26458333,71.75256,104.92167)"
       style="fill:#58843c;fill-opacity:1;fill-rule:evenodd;stroke:none"
       clip-path="url(#clipEmfPath1-4)"
       d="m 388.61982,15.999169 v 12.639344 h 3.03984 V 15.999169 Z"
       id="path1548" />
    <path
       transform="matrix(0.26458333,0,0,0.26458333,71.75256,104.92167)"
       style="fill:#57843a;fill-opacity:1;fill-rule:evenodd;stroke:none"
       clip-path="url(#clipEmfPath1-4)"
       d="m 391.65966,15.999169 v 12.639344 h 4.79975 V 15.999169 Z"
       id="path1550" />
    <path
       transform="matrix(0.26458333,0,0,0.26458333,71.75256,104.92167)"
       style="fill:#568338;fill-opacity:1;fill-rule:evenodd;stroke:none"
       clip-path="url(#clipEmfPath1-4)"
       d="m 396.45941,15.999169 v 12.639344 h 4.63976 V 15.999169 Z"
       id="path1552" />
    <path
       transform="matrix(0.26458333,0,0,0.26458333,71.75256,104.92167)"
       style="fill:#548235;fill-opacity:1;fill-rule:evenodd;stroke:none"
       clip-path="url(#clipEmfPath1-4)"
       d="m 401.09917,15.999169 v 12.639344 h 3.99979 V 15.999169 Z"
       id="path1554" />
    <path
       transform="matrix(0.26458333,0,0,0.26458333,71.75256,104.92167)"
       style="fill:none;stroke:#000000;stroke-width:0.659966px;stroke-linecap:butt;stroke-linejoin:miter;stroke-miterlimit:8;stroke-dasharray:none;stroke-opacity:1"
       clip-path="url(#clipEmfPath2-6)"
       d="M 405.01896,28.558517 5.1997299,22.318841 405.01896,16.079165 Z"
       id="path1556" />
    <path
       transform="matrix(0.26458333,0,0,0.26458333,71.75256,104.92167)"
       style="fill:none;stroke:#000000;stroke-width:0.669965px;stroke-linecap:butt;stroke-linejoin:miter;stroke-miterlimit:8;stroke-dasharray:none;stroke-opacity:1"
       clip-path="url(#clipEmfPath2-6)"
       d="M 3.9197964,30.318425 V 14.319256"
       id="path1558" />
    <path
       transform="matrix(0.26458333,0,0,0.26458333,71.75256,104.92167)"
       style="fill:none;stroke:#000000;stroke-width:0.669965px;stroke-linecap:butt;stroke-linejoin:miter;stroke-miterlimit:8;stroke-dasharray:none;stroke-opacity:1"
       clip-path="url(#clipEmfPath2-6)"
       d="M 84.235625,30.318425 V 14.319256"
       id="path1560" />
    <path
       transform="matrix(0.26458333,0,0,0.26458333,71.75256,104.92167)"
       style="fill:none;stroke:#000000;stroke-width:0.669965px;stroke-linecap:butt;stroke-linejoin:miter;stroke-miterlimit:8;stroke-dasharray:none;stroke-opacity:1"
       clip-path="url(#clipEmfPath2-6)"
       d="M 164.39146,30.318425 V 14.319256"
       id="path1562" />
    <path
       transform="matrix(0.26458333,0,0,0.26458333,71.75256,104.92167)"
       style="fill:none;stroke:#000000;stroke-width:0.669965px;stroke-linecap:butt;stroke-linejoin:miter;stroke-miterlimit:8;stroke-dasharray:none;stroke-opacity:1"
       clip-path="url(#clipEmfPath2-6)"
       d="M 244.5473,30.318425 V 14.319256"
       id="path1564" />
    <path
       transform="matrix(0.26458333,0,0,0.26458333,71.75256,104.92167)"
       style="fill:none;stroke:#000000;stroke-width:0.659966px;stroke-linecap:butt;stroke-linejoin:miter;stroke-miterlimit:8;stroke-dasharray:none;stroke-opacity:1"
       clip-path="url(#clipEmfPath2-6)"
       d="M 324.86313,30.318425 V 14.319256"
       id="path1566" />
    <path
       transform="matrix(0.26458333,0,0,0.26458333,71.75256,104.92167)"
       style="fill:none;stroke:#000000;stroke-width:0.659966px;stroke-linecap:butt;stroke-linejoin:miter;stroke-miterlimit:8;stroke-dasharray:none;stroke-opacity:1"
       clip-path="url(#clipEmfPath2-6)"
       d="M 405.01896,30.318425 V 14.319256"
       id="path1568" />
    <text
       xml:space="preserve"
       style="font-style:normal;font-variant:normal;font-weight:400;font-size:3.50573px;line-height:125%;font-family:Arial;text-align:start;letter-spacing:0px;word-spacing:0px;text-anchor:start;fill:#000000;fill-opacity:1;stroke:none;stroke-width:0.264583"
       x="72.133842"
       y="108.24833"
       id="text1574"><tspan
         style="stroke-width:0.264583"
         sodipodi:role="line"
         x="72.133842"
         y="108.24833"
         id="tspan1572"><tspan
           dx="0"
           dy="0"
           style="font-style:normal;font-variant:normal;font-weight:400;font-size:3.50573px;font-family:Arial;fill:#000000;stroke-width:0.264583"
           id="tspan1570">0</tspan></tspan></text>
    <text
       xml:space="preserve"
       style="font-style:normal;font-variant:normal;font-weight:400;font-size:3.50573px;line-height:125%;font-family:Arial;text-align:start;letter-spacing:0px;word-spacing:0px;text-anchor:start;fill:#000000;fill-opacity:1;stroke:none;stroke-width:0.264583"
       x="92.455513"
       y="108.24833"
       id="text1580"><tspan
         style="stroke-width:0.264583"
         sodipodi:role="line"
         x="92.455513"
         y="108.24833"
         id="tspan1578"><tspan
           dx="0"
           dy="0"
           style="font-style:normal;font-variant:normal;font-weight:400;font-size:3.50573px;font-family:Arial;fill:#000000;stroke-width:0.264583"
           id="tspan1576">20</tspan></tspan></text>
    <text
       xml:space="preserve"
       style="font-style:normal;font-variant:normal;font-weight:400;font-size:3.50573px;line-height:125%;font-family:Arial;text-align:start;letter-spacing:0px;word-spacing:0px;text-anchor:start;fill:#000000;fill-opacity:1;stroke:none;stroke-width:0.264583"
       x="113.35212"
       y="108.24833"
       id="text1586"><tspan
         style="stroke-width:0.264583"
         sodipodi:role="line"
         x="113.35212"
         y="108.24833"
         id="tspan1584"><tspan
           dx="0"
           dy="0"
           style="font-style:normal;font-variant:normal;font-weight:400;font-size:3.50573px;font-family:Arial;fill:#000000;stroke-width:0.264583"
           id="tspan1582">40</tspan></tspan></text>
    <text
       xml:space="preserve"
       style="font-style:normal;font-variant:normal;font-weight:400;font-size:3.50573px;line-height:125%;font-family:Arial;text-align:start;letter-spacing:0px;word-spacing:0px;text-anchor:start;fill:#000000;fill-opacity:1;stroke:none;stroke-width:0.264583"
       x="134.62369"
       y="108.06856"
       id="text1592"><tspan
         style="stroke-width:0.264583"
         sodipodi:role="line"
         x="134.62369"
         y="108.06856"
         id="tspan1590"><tspan
           dx="0"
           dy="0"
           style="font-style:normal;font-variant:normal;font-weight:400;font-size:3.50573px;font-family:Arial;fill:#000000;stroke-width:0.264583"
           id="tspan1588">60</tspan></tspan></text>
    <text
       xml:space="preserve"
       style="font-style:normal;font-variant:normal;font-weight:400;font-size:3.50573px;line-height:125%;font-family:Arial;text-align:start;letter-spacing:0px;word-spacing:0px;text-anchor:start;fill:#000000;fill-opacity:1;stroke:none;stroke-width:0.264583"
       x="156.27904"
       y="108.24155"
       id="text1598"><tspan
         style="stroke-width:0.264583"
         sodipodi:role="line"
         x="156.27904"
         y="108.24155"
         id="tspan1596"><tspan
           dx="0"
           dy="0"
           style="font-style:normal;font-variant:normal;font-weight:400;font-size:3.50573px;font-family:Arial;fill:#000000;stroke-width:0.264583"
           id="tspan1594">80</tspan></tspan></text>
    <text
       xml:space="preserve"
       style="font-style:normal;font-variant:normal;font-weight:400;font-size:3.50573px;line-height:125%;font-family:Arial;text-align:start;letter-spacing:0px;word-spacing:0px;text-anchor:start;fill:#000000;fill-opacity:1;stroke:none;stroke-width:0.264583"
       x="174.83946"
       y="108.24152"
       id="text1604"><tspan
         style="stroke-width:0.264583"
         sodipodi:role="line"
         x="174.83946"
         y="108.24152"
         id="tspan1602"><tspan
           dx="0"
           dy="0"
           style="font-style:normal;font-variant:normal;font-weight:400;font-size:3.50573px;font-family:Arial;fill:#000000;stroke-width:0.264583"
           id="tspan1600">100</tspan></tspan></text>
  </g>
</svg>
